<svg width="16" height="19" viewBox="0 0 16 19" fill="none" xmlns="http://www.w3.org/2000/svg">
<path d="M4.11111 8.5H5.66667V10.1667H4.11111V8.5ZM15 4.33333V16C15 16.9167 14.3 17.6667 13.4444 17.6667H2.55556C2.143 17.6667 1.74733 17.4911 1.45561 17.1785C1.16389 16.8659 1 16.442 1 16L1.00778 4.33333C1.00778 3.41667 1.69222 2.66667 2.55556 2.66667H3.33333V1H4.88889V2.66667H11.1111V1H12.6667V2.66667H13.4444C14.3 2.66667 15 3.41667 15 4.33333ZM2.55556 6H13.4444V4.33333H2.55556V6ZM13.4444 16V7.66667H2.55556V16H13.4444ZM10.3333 10.1667H11.8889V8.5H10.3333V10.1667ZM7.22222 10.1667H8.77778V8.5H7.22222V10.1667Z" fill="#7688A4"/>
</svg>
